<?xml version="1.0" encoding="UTF-8" standalone="no"?>
<svg
   xmlns:dc="http://purl.org/dc/elements/1.1/"
   xmlns:cc="http://creativecommons.org/ns#"
   xmlns:rdf="http://www.w3.org/1999/02/22-rdf-syntax-ns#"
   xmlns:svg="http://www.w3.org/2000/svg"
   xmlns="http://www.w3.org/2000/svg"
   xmlns:sodipodi="http://sodipodi.sourceforge.net/DTD/sodipodi-0.dtd"
   xmlns:inkscape="http://www.inkscape.org/namespaces/inkscape"
   version="1.0"
   width="200.000000pt"
   height="200.000000pt"
   viewBox="0 0 200.000000 200.000000"
   preserveAspectRatio="xMidYMid meet"
   id="svg22"
   sodipodi:docname="KMRC.svg"
   inkscape:version="0.92.4 (5da689c313, 2019-01-14)">
  <defs
     id="defs26" />
  <sodipodi:namedview
     pagecolor="#ffffff"
     bordercolor="#666666"
     borderopacity="1"
     objecttolerance="10"
     gridtolerance="10"
     guidetolerance="10"
     inkscape:pageopacity="0"
     inkscape:pageshadow="2"
     inkscape:window-width="1366"
     inkscape:window-height="705"
     id="namedview24"
     showgrid="false"
     inkscape:zoom="2.01"
     inkscape:cx="133.33333"
     inkscape:cy="133.33333"
     inkscape:window-x="-8"
     inkscape:window-y="-8"
     inkscape:window-maximized="1"
     inkscape:current-layer="g20" />
  <metadata
     id="metadata10">
Created by potrace 1.15, written by Peter Selinger 2001-2017
<rdf:RDF>
  <cc:Work
     rdf:about="">
    <dc:format>image/svg+xml</dc:format>
    <dc:type
       rdf:resource="http://purl.org/dc/dcmitype/StillImage" />
  </cc:Work>
</rdf:RDF>
</metadata>
  <g
     transform="translate(0.000000,200.000000) scale(0.100000,-0.100000)"
     fill="#000000"
     stroke="none"
     id="g20">
    <path
       d="M551 1882 c-29 -31 -150 -154 -267 -273 l-214 -217 0 -395 0 -395 277 -271 276 -271 177 0 c97 0 272 3 389 7 l213 6 196 201 c109 111 227 232 265 270 l67 69 0 391 0 391 -272 272 -273 272 -390 0 -390 0 -54 -57z m1011 -317 l236 -236 1 -328 2 -327 -33 -31 c-18 -17 -124 -123 -235 -235 l-203 -205 -327 -2 -328 -2 -231 233 -232 233 -7 330 -7 330 24 21 c13 12 119 118 236 236 l214 216 326 1 327 2 237 -236z"
       id="path12"
       style="fill:#008000" />
    <path
       d="M486 1513 l-211 -216 4 -303 3 -303 212 -211 211 -212 304 4 304 4 209 215 208 214 -6 305 -5 305 -212 207 -212 207 -299 1 -300 0 -210 -217z m970 -44 l191 -190 7 -265 c4 -145 3 -270 -1 -278 -4 -8 -90 -97 -189 -199 l-182 -184 -273 -6 -274 -6 -192 192 -193 192 -1 267 c0 146 3 273 8 282 5 9 89 97 188 196 l178 180 201 3 c111 1 233 3 271 5 l70 2 191 -191z"
       id="path14"
       style="fill:#008000" />
    <path
       d="M698 1378 c-74 -95 -137 -178 -141 -185 -5 -7 26 -57 78 -125 48 -62 111 -146 141 -186 l55 -73 114 2 c63 1 115 4 115 8 0 4 -61 86 -135 182 -74 96 -133 179 -131 185 5 13 219 299 247 330 11 11 19 23 19 27 0 4 -51 7 -114 7 l-115 0 -133 -172z"
       id="path16"
       style="fill:#0000ff" />
    <path
       d="M940 1180 c0 -5 23 -36 177 -238 51 -67 93 -126 93 -130 0 -4 -13 -23 -28 -42 -40 -49 -227 -292 -236 -307 -6 -10 19 -13 111 -13 l118 0 130 172 c72 94 133 177 138 184 5 8 -17 44 -60 100 -78 99 -142 182 -181 236 -21 29 -36 38 -67 43 -45 6 -195 3 -195 -5z"
       id="path18"
       style="fill:#ff0000" />
  </g>
</svg>
